<svg xmlns="http://www.w3.org/2000/svg" viewBox="-1678.583 -15171.023 22.422 29.504">
  <defs>
    <style>
      .cls-1 {
        fill: #30a2f5;
      }

      .cls-2 {
        fill: #1a1a1a;
      }

      .cls-3 {
        fill: #1ad3bc;
      }

      .cls-4 {
        fill: #333;
      }

      .cls-5 {
        fill: #f37b8f;
      }

      .cls-6 {
        fill: #93618d;
      }

      .cls-7 {
        fill: #fff;
      }
    </style>
  </defs>
  <g id="_180407_The_Creative_Crypto_Logo" data-name="180407 The Creative Crypto Logo" transform="translate(-1678.576 -15171.023)">
    <g id="BASE" transform="translate(-0.007 0)">
      <path id="Path_777" data-name="Path 777" class="cls-1" d="M5.442,21.466,1.01,25.9V1.25L5.442,5.684Z" transform="translate(-0.836 -1.036)"/>
      <path id="Path_778" data-name="Path 778" class="cls-2" d="M31.354,42.952H26.92V27.17L31.354,31.6Z" transform="translate(-22.314 -22.522)"/>
      <path id="Path_779" data-name="Path 779" class="cls-3" d="M16.34,123.864H1l4.434-4.434h8.69l4.436,4.434Z" transform="translate(-0.828 -99.001)"/>
      <path id="Path_780" data-name="Path 780" class="cls-4" d="M5.434,145.35H1l4.436,4.434H22.993l-4.434-4.434Z" transform="translate(-0.828 -120.487)"/>
      <path id="Path_781" data-name="Path 781" class="cls-5" d="M16.34,1.25H1L5.434,5.684h8.69L18.559,1.25Z" transform="translate(-0.828 -1.036)"/>
      <path id="Path_782" data-name="Path 782" class="cls-2" d="M82.157,1.25h0L77.72,5.684l4.434,4.434Z" transform="translate(-64.424 -1.036)"/>
      <path id="Path_783" data-name="Path 783" class="cls-6" d="M35.61,27.17H26.92L31.354,31.6h8.69Z" transform="translate(-22.314 -22.522)"/>
      <path id="Path_784" data-name="Path 784" class="cls-7" d="M17.769.214V9.08H9.077v11.35h4.259l4.436,4.434L22.206,29.3H4.644L.206,24.863h0V.214H17.769m0-.214H.21A.214.214,0,0,0-.006.214V24.837a.212.212,0,0,0,.06.171L4.49,29.442a.214.214,0,0,0,.151.062H22.2a.214.214,0,0,0,.151-.364l-4.434-4.434-4.436-4.427a.214.214,0,0,0-.151-.063H9.291V9.293h8.476a.214.214,0,0,0,.214-.214V.214A.214.214,0,0,0,17.769,0Zm0,.428Z" transform="translate(0.007 0)"/>
    </g>
  </g>
</svg>
