<svg xmlns="http://www.w3.org/2000/svg" viewBox="-3943 -15534 770.29 33.101">
  <defs>
    <style>
      .cls-1 {
        fill: #e1e1e1;
      }

      .cls-2 {
        fill: #fff;
      }
    </style>
  </defs>
  <g id="Group_888" data-name="Group 888" transform="translate(-3943 -15534)">
    <path id="Path_693" data-name="Path 693" class="cls-1" d="M623.367,27.233,617.4,33.16V.1l5.967,5.967Z" transform="translate(-368.485 -0.06)"/>
    <path id="Path_694" data-name="Path 694" class="cls-2" d="M617.4,39.667l5.967-5.967h11.652v5.967Z" transform="translate(-368.485 -20.113)"/>
    <path id="Path_695" data-name="Path 695" class="cls-2" d="M829.167,8.889H823.2V.1l5.967,5.967Z" transform="translate(-491.313 -0.06)"/>
    <path id="Path_696" data-name="Path 696" class="cls-2" d="M866.9,8.889h5.927V.1L866.9,6.067Z" transform="translate(-517.395 -0.06)"/>
    <path id="Path_697" data-name="Path 697" class="cls-2" d="M637.962,73.327H617.4l5.927-5.927h11.652l5.967,5.927Z" transform="translate(-368.485 -40.227)"/>
    <path id="Path_698" data-name="Path 698" class="cls-2" d="M637.962.1H617.4l5.927,5.927h11.652L640.945.1Z" transform="translate(-368.485 -0.06)"/>
    <path id="Path_699" data-name="Path 699" class="cls-1" d="M1587.2,0h5.927V33.06l-5.927-5.927Z" transform="translate(-947.294 0)"/>
    <path id="Path_700" data-name="Path 700" class="cls-2" d="M1567.045,33.6l-5.927,5.967H1543.5l5.967-5.967Z" transform="translate(-921.212 -20.054)"/>
    <path id="Path_701" data-name="Path 701" class="cls-1" d="M1543.5,19.513V0h5.927V13.546l-5.927,5.967Z" transform="translate(-921.212 0)"/>
    <path id="Path_702" data-name="Path 702" class="cls-2" d="M1546.483,73.227h20.562l-5.927-5.927h-11.651l-5.967,5.927Z" transform="translate(-921.212 -40.167)"/>
    <path id="Path_703" data-name="Path 703" class="cls-1" d="M1137.867,27.233,1131.9,33.16V.1l5.967,5.967Z" transform="translate(-675.555 -0.06)"/>
    <path id="Path_704" data-name="Path 704" class="cls-2" d="M1152.462,73.327H1131.9l5.927-5.927h11.651l5.967,5.927Z" transform="translate(-675.555 -40.227)"/>
    <path id="Path_705" data-name="Path 705" class="cls-2" d="M1152.462.1H1131.9l5.927,5.927h11.651L1155.445.1Z" transform="translate(-675.555 -0.06)"/>
    <path id="Path_706" data-name="Path 706" class="cls-1" d="M417.567,27.233,411.6,33.16V.1l5.967,5.967Z" transform="translate(-245.657 -0.06)"/>
    <path id="Path_707" data-name="Path 707" class="cls-2" d="M432.161,73.327H411.6l5.927-5.927h11.652l5.967,5.927Z" transform="translate(-245.657 -40.227)"/>
    <path id="Path_708" data-name="Path 708" class="cls-2" d="M432.161.1H411.6l5.927,5.927h11.652L435.145.1Z" transform="translate(-245.657 -0.06)"/>
    <g id="Group_882" data-name="Group 882" transform="translate(215.896 16.57)">
      <path id="Path_709" data-name="Path 709" class="cls-1" d="M549.772,57.63H543.08L535.5,41.1h6.531Z" transform="translate(-535.5 -41.1)"/>
    </g>
    <path id="Path_710" data-name="Path 710" class="cls-1" d="M520.467,33.16H514.5V.1l5.967,5.967Z" transform="translate(-307.071 -0.06)"/>
    <path id="Path_711" data-name="Path 711" class="cls-2" d="M535.062.1H514.5l5.927,5.927h11.652l5.08-5.08A2.919,2.919,0,0,0,535.062.1Z" transform="translate(-307.071 -0.06)"/>
    <path id="Path_712" data-name="Path 712" class="cls-1" d="M726.267,47.287,720.3,53.213V39.667l5.967-5.967Z" transform="translate(-429.899 -20.113)"/>
    <path id="Path_713" data-name="Path 713" class="cls-2" d="M740.861,73.327H720.3l5.927-5.927h11.692L743,72.48A3.088,3.088,0,0,1,740.861,73.327Z" transform="translate(-429.899 -40.227)"/>
    <g id="Group_883" data-name="Group 883" transform="translate(308.019 12.821)">
      <path id="Path_714" data-name="Path 714" class="cls-1" d="M769.927,49.136a2.86,2.86,0,0,1-.887,2.1L764,46.153V37.727l5.927-5.927V46.193h0Z" transform="translate(-764 -31.8)"/>
    </g>
    <path id="Path_715" data-name="Path 715" class="cls-2" d="M740.861.1H720.3l5.927,5.927h11.692L743,.947A3.088,3.088,0,0,0,740.861.1Z" transform="translate(-429.899 -0.06)"/>
    <g id="Group_884" data-name="Group 884" transform="translate(308.019 0.887)">
      <path id="Path_716" data-name="Path 716" class="cls-1" d="M769.927,4.3a2.86,2.86,0,0,0-.887-2.1L764,7.28v8.426l5.927,5.927V7.28h0Z" transform="translate(-764 -2.2)"/>
    </g>
    <path id="Path_717" data-name="Path 717" class="cls-2" d="M735.1,39.667V33.7h17.578l-5.927,5.967Z" transform="translate(-438.732 -20.113)"/>
    <rect id="Rectangle_1502" data-name="Rectangle 1502" class="cls-2" width="5.927" height="33.06" transform="translate(340.676 0.04)"/>
    <path id="Path_718" data-name="Path 718" class="cls-1" d="M829.167,6.067,823.2.1h23.545l-5.927,5.967Z" transform="translate(-491.313 -0.06)"/>
    <rect id="Rectangle_1503" data-name="Rectangle 1503" class="cls-2" width="5.927" height="33.06" transform="translate(382.162 0.04)"/>
    <path id="Path_719" data-name="Path 719" class="cls-1" d="M932.067,6.067,926.1.1h23.545l-5.927,5.967Z" transform="translate(-552.727 -0.06)"/>
    <path id="Path_720" data-name="Path 720" class="cls-1" d="M943.718,67.4l5.927,5.927H926.1l5.967-5.927Z" transform="translate(-552.727 -40.227)"/>
    <path id="Path_721" data-name="Path 721" class="cls-2" d="M1755.267,8.789H1749.3V0l5.967,5.967Z" transform="translate(-1044.04 0)"/>
    <path id="Path_722" data-name="Path 722" class="cls-2" d="M1793,8.789h5.967V0L1793,5.967Z" transform="translate(-1070.122 0)"/>
    <rect id="Rectangle_1504" data-name="Rectangle 1504" class="cls-2" width="5.927" height="33.06" transform="translate(714.089 0)"/>
    <path id="Path_723" data-name="Path 723" class="cls-1" d="M1755.267,5.967,1749.3,0h23.585l-5.967,5.967Z" transform="translate(-1044.04 0)"/>
    <g id="Group_885" data-name="Group 885" transform="translate(414.859 0.04)">
      <path id="Path_724" data-name="Path 724" class="cls-1" d="M1043.756,33.16h-5.967L1029,.1h6.41Z" transform="translate(-1029 -0.1)"/>
    </g>
    <g id="Group_886" data-name="Group 886" transform="translate(423.648 0)">
      <path id="Path_725" data-name="Path 725" class="cls-2" d="M1050.8,33.06h5.967L1065.516,0h-6.41Z" transform="translate(-1050.8)"/>
    </g>
    <path id="Path_726" data-name="Path 726" class="cls-1" d="M564.067,12.723V4.3a2.86,2.86,0,0,0-.887-2.1L558.1,7.28v6.652h0V14.9l5.12,5.08a3.016,3.016,0,0,0,.847-2.137v-5.12Z" transform="translate(-333.093 -1.313)"/>
    <path id="Path_727" data-name="Path 727" class="cls-2" d="M537.239,38.78l-5.08-5.08H520.467L514.5,39.627h20.642A2.738,2.738,0,0,0,537.239,38.78Z" transform="translate(-307.071 -20.113)"/>
    <path id="Path_728" data-name="Path 728" class="cls-1" d="M1343.667,27.133,1337.7,33.06V0l5.967,5.967Z" transform="translate(-798.384 0)"/>
    <path id="Path_729" data-name="Path 729" class="cls-2" d="M1358.362,73.227H1337.8l5.927-5.927h11.652l5.967,5.927Z" transform="translate(-798.443 -40.167)"/>
    <path id="Path_730" data-name="Path 730" class="cls-2" d="M1358.362,0H1337.8l5.927,5.927h11.652L1361.3,0Z" transform="translate(-798.443 0)"/>
    <g id="Group_887" data-name="Group 887" transform="translate(589.269 16.53)">
      <path id="Path_731" data-name="Path 731" class="cls-1" d="M1475.872,57.53h-6.652L1461.6,41h6.531Z" transform="translate(-1461.6 -41)"/>
    </g>
    <path id="Path_732" data-name="Path 732" class="cls-1" d="M1446.567,33.06H1440.6V0l5.967,5.967Z" transform="translate(-859.798 0)"/>
    <path id="Path_733" data-name="Path 733" class="cls-2" d="M1461.261,0H1440.7l5.927,5.927h11.652l5.08-5.08A3.063,3.063,0,0,0,1461.261,0Z" transform="translate(-859.857 0)"/>
    <path id="Path_734" data-name="Path 734" class="cls-1" d="M1490.167,12.623V4.2a2.86,2.86,0,0,0-.887-2.1l-5.08,5.08v6.652h0V14.8l5.12,5.08a3.016,3.016,0,0,0,.847-2.137v-5.12Z" transform="translate(-885.82 -1.253)"/>
    <path id="Path_735" data-name="Path 735" class="cls-2" d="M1463.339,38.68l-5.08-5.08h-11.692l-5.967,5.927h20.642A2.738,2.738,0,0,0,1463.339,38.68Z" transform="translate(-859.798 -20.054)"/>
    <path id="Path_736" data-name="Path 736" class="cls-1" d="M1871.132,67.2H1859.48l-5.08,5.12a3.016,3.016,0,0,0,2.137.847h17.578a2.86,2.86,0,0,0,2.1-.887Z" transform="translate(-1106.768 -40.107)"/>
    <path id="Path_737" data-name="Path 737" class="cls-1" d="M1859.48,5.967h11.652l5.08-5.12A3.016,3.016,0,0,0,1874.075,0H1856.5a2.86,2.86,0,0,0-2.1.887Z" transform="translate(-1106.768 0)"/>
    <path id="Path_738" data-name="Path 738" class="cls-2" d="M1901.767,8.793h0V4.2a2.86,2.86,0,0,0-.887-2.1l-5.08,5.08v.04h0v9.515h0V28.386l5.08,5.08a3.024,3.024,0,0,0,.887-2.1V24.8h0Z" transform="translate(-1131.476 -1.253)"/>
    <path id="Path_739" data-name="Path 739" class="cls-2" d="M1852.2,8.793h0V4.2a2.86,2.86,0,0,1,.887-2.1l5.08,5.08v.04h0v9.515h0V28.386l-5.08,5.08a3.024,3.024,0,0,1-.887-2.1V24.8h0Z" transform="translate(-1105.454 -1.253)"/>
    <path id="Path_740" data-name="Path 740" class="cls-1" d="M1652.367,33.06H1646.4V0l5.967,5.967Z" transform="translate(-982.626 0)"/>
    <path id="Path_741" data-name="Path 741" class="cls-2" d="M1667.062,0H1646.5l5.927,5.927h11.652l5.08-5.08A3.063,3.063,0,0,0,1667.062,0Z" transform="translate(-982.686 0)"/>
    <path id="Path_742" data-name="Path 742" class="cls-1" d="M1695.967,12.623V4.2a2.861,2.861,0,0,0-.887-2.1L1690,7.18v6.652h0V14.8l5.12,5.08a3.016,3.016,0,0,0,.847-2.137v-5.12Z" transform="translate(-1008.648 -1.253)"/>
    <path id="Path_743" data-name="Path 743" class="cls-2" d="M1669.139,38.68l-5.08-5.08h-11.692l-5.967,5.927h20.642A2.738,2.738,0,0,0,1669.139,38.68Z" transform="translate(-982.626 -20.054)"/>
    <path id="Path_744" data-name="Path 744" class="cls-2" d="M1131.9,39.667l5.927-5.967h11.692v5.967Z" transform="translate(-675.555 -20.113)"/>
    <path id="Path_745" data-name="Path 745" class="cls-2" d="M5.967,8.789H0V0L5.967,5.927Z" transform="translate(0 0)"/>
    <path id="Path_746" data-name="Path 746" class="cls-2" d="M43.7,8.789h5.927V0L43.7,5.927Z" transform="translate(-26.082 0)"/>
    <rect id="Rectangle_1505" data-name="Rectangle 1505" class="cls-2" width="5.927" height="33.06" transform="translate(8.789 0)"/>
    <path id="Path_747" data-name="Path 747" class="cls-1" d="M5.927,5.927,0,0H23.545L17.618,5.927Z" transform="translate(0 0)"/>
    <path id="Path_748" data-name="Path 748" class="cls-1" d="M211.767,27.133,205.8,33.06V0l5.967,5.927Z" transform="translate(-122.828 0)"/>
    <path id="Path_749" data-name="Path 749" class="cls-2" d="M205.8,39.567l5.967-5.967h11.652v5.967Z" transform="translate(-122.828 -20.054)"/>
    <path id="Path_750" data-name="Path 750" class="cls-2" d="M226.361,73.227H205.8l5.927-5.927h11.652l5.967,5.927Z" transform="translate(-122.828 -40.167)"/>
    <path id="Path_751" data-name="Path 751" class="cls-2" d="M226.361,0H205.8l5.927,5.927h11.652L229.345,0Z" transform="translate(-122.828 0)"/>
    <rect id="Rectangle_1506" data-name="Rectangle 1506" class="cls-1" width="5.927" height="33.06" transform="translate(41.486 0)"/>
    <rect id="Rectangle_1507" data-name="Rectangle 1507" class="cls-1" width="5.927" height="33.06" transform="translate(59.104 0)"/>
    <path id="Path_752" data-name="Path 752" class="cls-2" d="M102.9,39.567l5.967-5.967h11.652l5.927,5.967Z" transform="translate(-61.414 -20.054)"/>
  </g>
</svg>
